# xmcd
#
# Track frame offsets:
#  150
#  23045
#  43281
#  61781
#  78551
#  100675
#  121998
#  146214
#  157856
#  169294
#  189061
#  208473
#  235118
#  253048
#  273299
#  293996
#  310561
#
# Disc length: 4473 seconds
#
# Revision: 0
# Processed by: cddbd v1.5.1PL0 Copyright (c) Steve Scherf et al.
# Submitted via: Collectorz.com Music Collector 6.9
#
DISCID=eb117711
DTITLE=Various Artist - Honky Tonk 5
DYEAR=1900
DGENRE=
TTITLE0=Robben Ford and the Blue Line - Don't Let Me Be Misunderstood
TTITLE1=Lyle Lovett and Al Green - Funny How Time Slips Away
TTITLE2=Lyle Lovett - Fiona
TTITLE3=Elliott Murphy - Hardcore
TTITLE4=Elliott Murphy - You Never Know What Youre
TTITLE5=Elliott Murphy and Bruce Springsteen - Everything I Do
TTITLE6=Traveling Wilburies and Bob Dylan - Tweeter And the Monkey Man
TTITLE7=Dan Bern - Cure For Aids
TTITLE8=Dan Bern - Hobo
TTITLE9=Dan Bern - Jesus House
TTITLE10=Dan Bern - New American Language
TTITLE11=Dan Bern - Witness
TTITLE12=Kevin McClave - El Beso Grande
TTITLE13=Kevin McClave - Emily
TTITLE14=Kevin McClave - I Don't Know
TTITLE15=Kevin McClave - Oposite Sides of Town
TTITLE16=Kevin McClave - You Aughta Know
EXTD=
EXTT0=
EXTT1=
EXTT2=
EXTT3=
EXTT4=
EXTT5=
EXTT6=
EXTT7=
EXTT8=
EXTT9=
EXTT10=
EXTT11=
EXTT12=
EXTT13=
EXTT14=
EXTT15=
EXTT16=
PLAYORDER=
